<svg class="svg-fill-current-color" width="13" height="22"  version="1.1" viewBox="0 0 38.8 23.045" xmlns="http://www.w3.org/2000/svg" xmlns:xlink="http://www.w3.org/1999/xlink">
 <path d="m1.27 29.623 2.57-9.41a18.2 18.2 0 0 1-2.41-9.08c-0.019-10 8.08-18.2 18-18.2 4.83 0 9.37 1.88 12.8 5.32s5.29 8 5.29 12.9c0 10-8.1 18.2-18.1 18.2a17.8 17.8 0 0 1-8.63-2.22zm10-5.8 0.551 0.333a15 15 0 0 0 7.64 2.11c8.27 0 15-6.78 15-15.1 0-4.03-1.56-7.84-4.39-10.7-2.83-2.84-6.62-4.44-10.6-4.44-8.28 0-15 6.78-15 15.1 0 2.85 0.79 5.64 2.3 8.04l0.349 0.574-1.52 5.58 5.71-1.52z" fill="#fff"/>
 <path d="m19.43-7.0691c-9.92 0-18.019 8.1992-18 18.199-0.00511 3.1854 0.82411 6.3184 2.4082 9.082l-2.5664 9.4102 9.5156-2.4902c2.6419 1.4597 5.6125 2.2244 8.6309 2.2207 10 0 18.1-8.1992 18.1-18.199 0-4.9-1.8552-9.4623-5.2852-12.902-3.43-3.44-7.9727-5.3203-12.803-5.3203zm0.04102 3.7031c3.98 0 7.0313 1.5897 9.8613 4.4297 2.83 2.86 4.3184 6.0071 4.3184 10.037 0 8.32-5.9214 14.59-14.191 14.59-2.6898-0.0056-5.1886-0.67517-7.5-2.0508l-0.55078-0.33398 0.04102-0.02344-5.2676 1.7227 1.623-5.5664-0.35156-0.57422c-1.51-2.4-1.957-4.7965-1.957-7.6465 0-8.32 5.6946-14.584 13.975-14.584zm-6.3633 6.0938c-0.294 0-0.78703 0.11222-1.207 0.57422-0.423 0.462-1.582 1.551-1.582 3.791 0 2.24 1.6198 4.3975 1.8398 4.6875 0.22 0.296 3.1227 5.0313 7.7227 6.8613 3.82 1.52 4.5899 1.2209 5.4199 1.1309 0.826-0.092 2.6569-1.0921 3.0469-2.1621 0.367-1.05 0.36781-1.9821 0.25781-2.1621-0.11-0.18-0.42619-0.2932-0.86719-0.5332-0.459-0.222-2.6579-1.3324-3.0879-1.4824-0.422-0.148-0.71381-0.22134-1.0078 0.22266-0.294 0.462-1.1597 1.4795-1.4297 1.7695-0.257 0.296-0.53166 0.33333-0.97266 0.11133-0.46-0.221-1.9145-0.69786-3.6445-2.2559-1.34-1.2-2.2395-2.7006-2.5195-3.1406-0.257-0.462-0.03392-0.70378 0.20508-0.92578 0.202-0.203 0.45969-0.53788 0.67969-0.79688 0.22-0.259 0.29103-0.45986 0.45703-0.75586 0.147-0.295 0.07484-0.57588-0.03516-0.79688-0.10986-0.20374-0.97616-2.4276-1.3828-3.3398v-0.00586c-0.32937-0.75244-0.69659-0.77344-1.0078-0.77344-0.276-0.019-0.57277-0.017578-0.88476-0.017578z"/>
</svg>
