<svg version="1.1" viewBox="0 0 104.96 47.36" xmlns="http://www.w3.org/2000/svg" class="{{ include.class }}">
 <g transform="matrix(.10238 0 0 .10238 41.401 20.895)">
  <path d="m-76.203 79.156h255c12.39 0 25.03 0.97 37-2.89 14.66-4.72 30.55-11.36 41.71-22.32 28.58-28.07 32-74.54 10.59-107.79-24-37.28-64.107-37.05-103.3-38.01-23.634-0.58-47.296-0.99-71-0.99-13.455 0-32.091 2.15-44.996-1.43-5.88-1.63-8.745-8.11-6.266-13.57 4.717-10.38 19.907-7 29.262-7 28.356 0 56.611 1 85 1 29.015 0 57.95 1 87 1 9.36 0 25.32 3.35 33.91 0.4l25.38-23.02 58.71-56.38h-291c-12.408 0-26.031-1.67-38 2.03-19.833 6.13-38.867 16.37-52.61 32.14-20.96 24.05-25.259 68.45-8.324 95.83 35.926 58.09 116.88 43 174.93 43 14.949 0 32.305-2.46 46.999 0.23 4.743 0.87 10.623 6.49 9.151 11.77-2.696 9.66-15.647 8-23.15 8h-143c-9.873 0-23.524-2.45-32.961 0.51l-22.95 21.31-57.089 56.18m452-271-54.17 58.04-20.53 24.96c-2.68 16.55 1.84 36.17 6.41 52 15.59 54.02 53.25 93.49 104.29 115.93 14.45 6.36 33.88 16.84 50 16.89 15.79 0.05 34.5-9.08 48-16.38 32.05-17.33 65.23-42.87 81.73-76.44 26.98-54.91 14.75-116.96 14.27-175h-76c9.17 49.39 4.56 110.14-23.09 153-9.09 14.09-28.83 35.63-46.91 37.17-12.67 1.08-28.36-10.3-36.83-18.46-31.34-30.19-41.04-82.08-45-123.71-1.35-14.17 3.3-34.96-2.17-48m-561 304.42c-19.352 2.55-38.039 7.03-52.536 21.09-25.656 24.89-24.114 70.58 1.706 94.16 20.331 18.57 51.685 21.57 77.83 18.05 15.012-2.02 29.45-6.75 41-16.9 25.878-22.75 29.109-63.89 7.544-90.81-16.773-20.93-49.774-28.98-75.544-25.59m102 134.58h39v-103h46c7.018 0 14.889-0.15 18.682 7.02 1.151 2.17 1.313 4.57 1.309 6.98-0.031 19.09-18.455 7.6-27.303 14.03l-11.585 28.97 14.727 20 23.456 24.99c3.989 2.15 10.319 1.01 14.714 1.01h33l-39-46c28.645-8.89 41.08-48.14 20.87-71-23.686-26.8-67.815-18-99.87-18h-25c-2.704 0.01-7.553-0.62-9 2.32v132.68m284 0h112l-17.33-29.97-37.67-1.03 23-49h1l28.73 58 12.244 22.142h40.62l-66.226-134.99h-28.578l-67.79 134.85m138-135 59.21 135.21h25.74l57.05-135.21h-39.5l-31.445 70-31.445-70h-39.61m-601 103h-54c-9.066 0-19.494 1.5-28-2.17-24.896-10.77-31.176-42.63-8.985-59.93 15.356-11.98 37.608-7.9 55.985-7.9 5.456 0 15.883 1.99 20.61-1.03l14.39-30.97c-25.322 0-51.801-2.24-77 0.17-13.741 1.31-28.819 5.86-39.424 14.96-8.971 7.69-18.275 16.22-21.986 27.87-10.621 33.34 1.248 70.2 35.41 84.94 13.147 5.67 26.979 6.06 41 6.06h32c3.789 0 10.094 1.19 13.39-1.03l16.61-30.97m332 32h65c14.984 0 29.728 1.17 44-4.15 23.213-8.65 30.06-36.91 14.482-55.81-14.024-17.02-39.852-18.55-59.482-24.18-5.112-1.47-19.378-4.37-18.418-11.88 0.978-7.67 12.117-5.948 17.418-5.98l52.945-0.32 16.055-31.68h-63c-13.06 0-26.827-1.21-39 4.54-22.776 10.76-32.757 39.41-14.674 59.37 14.224 15.69 40.44 17.32 59.674 21.99 5.336 1.3 18.508 4.52 17.377 12.05-0.682 4.54-5.938 4.04-9.377 4.05h-30l-38.62 1.03-14.38 30.97m421-134v134h130l-14.33-31h-76.67v-20.03h62.26l2.97-7.97 7.77-23h-73v-20h76.73l14.27-32h-130m-681 31.33c15.403-2.57 37.395-2.2 48.502 10.29 20.274 22.79 3.921 56.66-23.502 60.94-15.915 2.49-36.007 0.16-46.239-13.56-14.825-19.88-3.815-53.5 21.239-57.67z" fill="#2b2b2b"/>
  <path d="m-21.203 2.1565h-162c-26.475 0-57.733 4.62-83-4.38-12.973-4.62-25.667-12.01-33.532-23.62-16.141-23.83-12.671-60.92 11.572-78.27 19.071-13.64 41.393-12.73 63.96-12.73 30.628 0 61.319 1 92 1 11.697 0 25.55 2.17 37 0.41l22.089-18.23 39.911-35.89 23-22.29h-180c-31.46 0-66.386-4.4-97 3.48-71.257 18.34-121.64 92.58-101.22 165.52 5.992 21.4 19.287 42.64 34.59 58.56 19.851 20.65 50.037 38.35 78.625 43.11 11.463 1.91 24.384 0.33 36 0.33h118l20.911-0.6 26.259-24.49 52.83-51.91" fill="#ed6823"/>
 </g>
</svg>
