<svg width="24" fill="none" version="1.1" viewBox="0 0 39 39" xmlns="http://www.w3.org/2000/svg" xmlns:xlink="http://www.w3.org/1999/xlink">
<path d="m0 0h38.8v39h-38.8z" fill="url(#c)"/>
<path d="m1.27 37.6 2.57-9.41a18.2 18.2 0 0 1-2.41-9.08c-0.019-10 8.08-18.2 18-18.2 4.83 0 9.37 1.88 12.8 5.32s5.29 8 5.29 12.9c0 10-8.1 18.2-18.1 18.2a17.8 17.8 0 0 1-8.63-2.22zm10-5.8 0.551 0.333a15 15 0 0 0 7.64 2.11c8.27 0 15-6.78 15-15.1 0-4.03-1.56-7.84-4.39-10.7-2.83-2.84-6.62-4.44-10.6-4.44-8.28 0-15 6.78-15 15.1 0 2.85 0.79 5.64 2.3 8.04l0.349 0.574-1.52 5.58 5.71-1.52z" fill="#fff"/>
<path d="m1.89 37 2.48-9.09a17.6 17.6 0 0 1-2.33-8.76c0-9.67 7.83-17.5 17.4-17.5 4.67 0 9.04 1.83 12.3 5.14a17.5 17.5 0 0 1 5.11 12.4c0 9.67-7.82 17.5-17.4 17.5-2.92 0-5.79-0.74-8.34-2.14z" fill="#25d366"/>
<path d="m1.27 37.6 2.57-9.41a18.2 18.2 0 0 1-2.41-9.08c-0.019-10 8.08-18.2 18-18.2 4.83 0 9.37 1.88 12.8 5.32s5.29 8 5.29 12.9c0 10-8.1 18.2-18.1 18.2a17.8 17.8 0 0 1-8.63-2.22zm10-5.8 0.551 0.333a15 15 0 0 0 7.64 2.11c8.27 0 15-6.78 15-15.1 0-4.03-1.56-7.84-4.39-10.7-2.83-2.84-6.62-4.44-10.6-4.44-8.28 0-15 6.78-15 15.1 0 2.85 0.79 5.64 2.3 8.04l0.349 0.574-1.52 5.58 5.71-1.52z" fill="url(#e)"/>
<path d="m15 11.5c-0.33-0.758-0.698-0.776-1.01-0.776-0.276-0.019-0.57-0.019-0.882-0.019-0.294 0-0.79 0.111-1.21 0.573-0.423 0.462-1.58 1.55-1.58 3.79s1.62 4.4 1.84 4.69c0.22 0.296 3.12 5.03 7.72 6.86 3.82 1.52 4.59 1.22 5.42 1.13 0.826-0.092 2.66-1.09 3.05-2.16 0.367-1.05 0.367-1.98 0.257-2.16s-0.423-0.296-0.864-0.536c-0.459-0.222-2.66-1.33-3.09-1.48-0.422-0.148-0.716-0.222-1.01 0.222-0.294 0.462-1.16 1.48-1.43 1.77-0.257 0.296-0.532 0.333-0.973 0.111-0.46-0.221-1.91-0.702-3.64-2.26-1.34-1.2-2.24-2.7-2.52-3.14-0.257-0.462-0.037-0.702 0.202-0.924 0.202-0.203 0.46-0.536 0.68-0.795s0.293-0.462 0.459-0.758c0.147-0.295 0.073-0.573-0.037-0.794-0.11-0.204-0.974-2.44-1.38-3.35z" clip-rule="evenodd" fill="#fff" fill-rule="evenodd"/>
<defs>
<pattern id="c" width="1" height="1" patternContentUnits="objectBoundingBox">
<use xlink:href="#image1"/>
</pattern>
<linearGradient id="e" x1="19.4" x2="19.4" y1="37.6" y2=".948" gradientUnits="userSpaceOnUse">
<stop stop-color="#F9F9F9" offset="0"/>
<stop stop-color="#fff" offset="1"/>
</linearGradient>
</defs>
</svg>
